<svg width="512" height="512" viewBox="0 0 512 512" fill="none" xmlns="http://www.w3.org/2000/svg">
  <rect width="512" height="512" rx="64" fill="#f59e0b"/>
  <path d="M128 160C128 142.3 142.3 128 160 128H352C369.7 128 384 142.3 384 160V352C384 369.7 369.7 384 352 384H160C142.3 384 128 369.7 128 352V160Z" fill="white"/>
  <path d="M160 192H352V224H160V192Z" fill="#f59e0b"/>
  <path d="M160 256H352V288H160V256Z" fill="#f59e0b"/>
  <path d="M160 320H352V352H160V320Z" fill="#f59e0b"/>
  <circle cx="176" cy="208" r="8" fill="#f59e0b"/>
  <circle cx="176" cy="272" r="8" fill="#f59e0b"/>
  <circle cx="176" cy="336" r="8" fill="#f59e0b"/>
</svg>

